<?xml version="1.0" encoding="UTF-8" standalone="no"?>
<!--?xml version="1.0" standalone="no"?-->

<svg
   xmlns:dc="http://purl.org/dc/elements/1.1/"
   xmlns:cc="http://creativecommons.org/ns#"
   xmlns:rdf="http://www.w3.org/1999/02/22-rdf-syntax-ns#"
   xmlns:svg="http://www.w3.org/2000/svg"
   xmlns="http://www.w3.org/2000/svg"
   xmlns:sodipodi="http://sodipodi.sourceforge.net/DTD/sodipodi-0.dtd"
   xmlns:inkscape="http://www.inkscape.org/namespaces/inkscape"
   width="26.472454pt"
   height="24.958261pt"
   viewBox="0 0 26.472454 24.958261"
   preserveAspectRatio="xMidYMid meet"
   id="svg5240"
   version="1.1"
   inkscape:version="0.91 r13725"
   sodipodi:docname="star_outline.svg">
  <defs
     id="defs5251" />
  <sodipodi:namedview
     pagecolor="#ffffff"
     bordercolor="#666666"
     borderopacity="1"
     objecttolerance="10"
     gridtolerance="10"
     guidetolerance="10"
     inkscape:pageopacity="0"
     inkscape:pageshadow="2"
     inkscape:window-width="1600"
     inkscape:window-height="838"
     id="namedview5249"
     showgrid="false"
     inkscape:zoom="2.6498246"
     inkscape:cx="-15.06774"
     inkscape:cy="-22.685211"
     inkscape:window-x="-8"
     inkscape:window-y="-8"
     inkscape:window-maximized="1"
     inkscape:current-layer="g5244"
     fit-margin-top="0"
     fit-margin-left="0"
     fit-margin-right="0"
     fit-margin-bottom="0" />
  <metadata
     id="metadata5242">
    <rdf:rdf>
      <rdf:description
         dc:title="Christmas star"
         dc:publisher="Hiox"
         dc:date="2015-12-16"
         dc:format="image/svg+xml"
         dc:language="en">
        <dc:creator>
          <rdf:bag>
            <rdf:li>svgimages.com</rdf:li>
          </rdf:bag>
        </dc:creator>
      </rdf:description>
    </rdf:rdf>
    <rdf:RDF>
      <cc:Work
         rdf:about="">
        <dc:format>image/svg+xml</dc:format>
        <dc:type
           rdf:resource="http://purl.org/dc/dcmitype/StillImage" />
        <dc:title></dc:title>
      </cc:Work>
    </rdf:RDF>
  </metadata>
  <g
     transform="matrix(0.1,0,0,-0.1,-29.586866,24.958259)"
     id="g5244"
     style="fill:#0a0a0a;stroke:none">
    <path
       class="node"
       id="node1"
       d="m 405.72935,210.42381 c -10.58898,-21.55048 -19.58962,-39.50922 -19.94258,-39.94724 -0.44121,-0.52562 -77.65254,-12.2645 -89.65339,-13.66616 -0.17648,0 -0.26472,-1.31405 -0.26472,-2.89091 0,-2.62811 1.5001,-4.46779 14.73633,-17.34551 8.20646,-7.88433 22.41335,-21.8133 31.76695,-31.01168 l 16.94237,-16.644679 -7.41229,-42.487737 c -4.14735,-23.390158 -7.41228,-43.363776 -7.50053,-44.4150191 0,-1.75207169 0.44121,-2.0148824516054 3.79439,-2.0148824516054 3.17669,0 9.3536,2.8909183516054 41.56176,19.7108065516054 20.73675,10.862845 38.12033,19.710807 38.4733,19.710807 0.35297,0 17.73655,-8.847962 38.4733,-19.710807 C 498.9124,2.8909108 505.0893,-7.5516054e-6 508.266,-7.5516054e-6 c 3.35317,0 3.79439,0.2628107616054 3.79439,2.0148824516054 -0.0882,1.0512431 -3.35318,21.0248611 -7.50054,44.4150191 l -7.41228,42.487737 16.94237,16.644679 c 9.3536,9.19838 23.56048,23.12735 31.76694,31.01168 13.23624,12.87772 14.73634,14.7174 14.73634,17.34551 0,1.57686 -0.0882,2.89091 -0.17648,2.89091 -12.08909,1.40166 -89.30042,13.14054 -89.74163,13.66616 -0.35297,0.43802 -9.3536,18.39676 -19.94259,39.94724 l -19.41313,39.1588 -3.08845,0 -3.08845,0 -19.41314,-39.1588 z m 41.47352,-8.58515 c 12.70677,-25.75546 19.06016,-37.58194 20.29554,-38.10756 0.97066,-0.43802 20.03083,-3.32894 42.35594,-6.57027 22.3251,-3.15373 40.67934,-5.86944 40.85582,-5.95704 0.0882,-0.17521 -13.23623,-13.14054 -29.56091,-28.9968 -16.41292,-15.76864 -30.1786,-29.347195 -30.53156,-30.135628 -0.44122,-0.876037 2.02955,-17.520718 6.35338,-42.137325 3.88263,-22.338914 6.88284,-40.9108749 6.61812,-41.1736859 -0.26473,-0.1752069 -1.94131,0.4380179 -3.70615,1.4016579 -1.76483,1.051242 -18.61896,9.811602 -37.4144,19.623203 L 428.23094,47.481137 394.08147,29.785212 c -18.88369,-9.811601 -35.73782,-18.571961 -37.50265,-19.623203 -1.76483,-0.96364 -3.44142,-1.5768648 -3.70614,-1.4016579 -0.26473,0.262811 2.73548,18.8347719 6.61811,41.1736859 4.32384,24.616607 6.7946,41.261288 6.35339,42.137325 -0.35296,0.788433 -14.11864,14.366988 -30.53156,30.135628 -16.32468,15.85626 -29.64915,28.82159 -29.56091,28.9968 0.17648,0.0876 18.53072,2.80331 40.85582,5.95704 22.32511,3.24133 41.38527,6.13225 42.35593,6.57027 1.23538,0.52562 7.58877,12.3521 20.29555,38.10756 10.23602,20.49923 18.70721,37.31912 18.97193,37.31912 0.26472,0 8.73591,-16.81989 18.97193,-37.31912 z"
       style="stroke-width:20"
       inkscape:connector-curvature="0" />
  </g>
  <g
     transform="matrix(0.1,0,0,-0.1,-29.586866,24.958259)"
     id="g5247"
     style="fill:#a1a1a1;stroke:none" />
</svg>
